<svg xmlns="http://www.w3.org/2000/svg" version="1.1" xmlns:xlink="http://www.w3.org/1999/xlink" xmlns:svgjs="http://svgjs.com/svgjs" width="512" height="512" x="0" y="0" viewBox="0 0 512 512.00003" style="enable-background:new 0 0 512 512" xml:space="preserve" class=""><g><linearGradient xmlns="http://www.w3.org/2000/svg" id="a" gradientUnits="userSpaceOnUse" x1=".00012116" x2="424.11663866" y1="255.9998799" y2="255.9998799"><stop offset="0" stop-color="#9cecd3"></stop><stop offset=".0208" stop-color="#a4edcd"></stop><stop offset=".2931" stop-color="#acf2c8"></stop><stop offset=".5538" stop-color="#b4f5c8"></stop><stop offset=".7956" stop-color="#b9f8c4"></stop><stop offset="1" stop-color="#c0f8c1"></stop></linearGradient><path xmlns="http://www.w3.org/2000/svg" d="m403.695312 201.75-146.472656-181.191406c-.242187-.296875-.492187-.589844-.75-.871094-11.359375-12.511719-27.566406-19.68359375-44.476562-19.68359375-.023438 0-.046875 0-.070313 0-.167969 0-.332031.01171875-.5.01562495-.140625-.0039062-.28125-.0195312-.421875-.0195312-.183594 0-.367187.0234375-.550781.0273438-.265625.0078124-.53125.0195312-.796875.0390624-16.109375.6289058-31.394531 7.7304688-42.234375 19.7226558-.25.273438-.488281.554688-.722656.84375l-146.414063 181.242188c-26.957031 30.257812-27.058594 75.613281-.238281 105.992188l146.167969 183.277343c.238281.300781.488281.59375.742187.878907 10.867188 12.125 26.246094 19.292968 42.472657 19.910156.027343.003906.058593.003906.085937.003906.453125.035156.902344.050781 1.355469.054688.054687 0 .113281.007812.167968.007812h.007813.003906c.050781 0 .101563-.007812.152344-.007812.054687 0 .109375-.003907.164063-.003907.089843 0 .175781.007813.261718.007813h.070313c17.007812 0 33.277343-7.242188 44.648437-19.871094.410156-.457031.800782-.929688 1.167969-1.421875l88.023437-117.984375c6.605469-8.855469 4.78125-21.386719-4.070312-27.988281-8.855469-6.605469-21.386719-4.785157-27.988281 4.070312l-63.238281 84.761719 49.507812-158.5625h78.917969c-1.371094 2.351562-2.992188 4.601562-4.882813 6.699219-7.390625 8.207031-6.726562 20.855469 1.480469 28.246093 8.207031 7.390626 20.851563 6.726563 28.242187-1.480468 27.429688-30.453125 27.46875-76.222656.1875-106.714844zm-30.769531 25.5625c.242188.296875.492188.589844.75.871094 1.933594 2.132812 3.589844 4.421875 4.988281 6.816406h-78.949218l-50.679688-160.945312zm-207.789062 47.6875h92.710937l-46.671875 149.476562zm46.039062-187.996094 46.605469 147.996094h-92.578125zm-160.097656 140.40625 121.203125-150.035156-48.964844 157.625h-77.882812c1.378906-2.367188 3.015625-4.632812 4.921875-6.746094.246093-.273437.488281-.554687.722656-.84375zm-.09375 55.097656c-.238281-.300781-.484375-.59375-.742187-.878906-1.863282-2.078125-3.460938-4.304687-4.8125-6.628906h77.851562l49.257812 159.921875zm0 0" fill="url(#a)" data-original="url(#a)" class=""></path></g></svg>