<svg xmlns="http://www.w3.org/2000/svg" version="1.1" xmlns:xlink="http://www.w3.org/1999/xlink" xmlns:svgjs="http://svgjs.com/svgjs" width="512" height="512" x="0" y="0" viewBox="0 0 512 512" style="enable-background:new 0 0 512 512" xml:space="preserve" class=""><g><linearGradient xmlns="http://www.w3.org/2000/svg" id="a" gradientUnits="userSpaceOnUse" x1="0" x2="512" y1="256" y2="256"><stop offset="0" stop-color="#9cecd3"></stop><stop offset=".0208" stop-color="#a4edcd"></stop><stop offset=".2931" stop-color="#acf2c8"></stop><stop offset=".5538" stop-color="#b4f5c8"></stop><stop offset=".7956" stop-color="#b9f8c4"></stop><stop offset="1" stop-color="#c0f8c1"></stop></linearGradient><path xmlns="http://www.w3.org/2000/svg" d="m512 170c0-33.085938-26.914062-60-60-60s-60 26.914062-60 60c0 14.765625 5.371094 28.296875 14.25 38.757812l-9.183594 3.675782c-27.085937 10.832031-57.714844.585937-72.828125-24.367188l-44.261719-73.082031c21.183594-9.273437 36.023438-30.421875 36.023438-54.984375 0-33.085938-26.914062-60-60-60s-60 26.914062-60 60c0 24.5625 14.839844 45.710938 36.019531 54.984375l-44.257812 73.082031c-15.113281 24.953125-45.742188 35.199219-72.828125 24.367188l-9.1875-3.675782c8.882812-10.460937 14.253906-23.992187 14.253906-38.757812 0-33.085938-26.914062-60-60-60s-60 26.914062-60 60c0 30.398438 22.730469 55.574219 52.089844 59.460938l32.910156 184.308593v38.230469c0 33.085938 26.914062 60 60 60h222c33.085938 0 60-26.914062 60-60v-40c0-11.046875-8.953125-20-20-20h-285.253906l-25.726563-144.050781 4.058594 1.621093c11.816406 4.726563 24.355469 7.101563 36.910156 7.101563 10.640625 0 21.292969-1.707031 31.519531-5.128906 22.300782-7.457031 41.289063-22.644531 53.46875-42.757813l34.023438-56.175781 34.023438 56.175781c12.179687 20.113282 31.167968 35.300782 53.464843 42.757813 10.230469 3.425781 20.878907 5.128906 31.523438 5.128906 12.550781 0 25.09375-2.375 36.910156-7.101563l4.054687-1.621093-13.128906 73.535156c-1.941406 10.875 5.296875 21.261719 16.171875 23.203125 1.191407.210938 2.371094.316406 3.539063.316406 9.503906 0 17.9375-6.804687 19.664062-16.488281l17.6875-99.054687c29.359375-3.886719 52.089844-29.0625 52.089844-59.460938zm-472 0c0-11.027344 8.972656-20 20-20s20 8.972656 20 20-8.972656 20-20 20-20-8.972656-20-20zm327 302h-222c-11.027344 0-20-8.972656-20-20v-20h262v20c0 11.027344-8.972656 20-20 20zm-111-432c11.027344 0 20 8.972656 20 20s-8.972656 20-20 20-20-8.972656-20-20 8.972656-20 20-20zm196 150c-11.027344 0-20-8.972656-20-20s8.972656-20 20-20 20 8.972656 20 20-8.972656 20-20 20zm0 0" fill="url(#a)" data-original="url(#a)" class=""></path></g></svg>