<svg xmlns="http://www.w3.org/2000/svg" version="1.1" xmlns:xlink="http://www.w3.org/1999/xlink" xmlns:svgjs="http://svgjs.com/svgjs" width="512" height="512" x="0" y="0" viewBox="0 0 511.99 511.99" style="enable-background:new 0 0 512 512" xml:space="preserve" class=""><g><linearGradient xmlns="http://www.w3.org/2000/svg" id="SVGID_1_" gradientUnits="userSpaceOnUse" x1="0" x2="511.99" y1="255.995" y2="255.995"><stop offset="0" stop-color="#9cecd3"></stop><stop offset=".0208" stop-color="#a4edcd"></stop><stop offset=".2931" stop-color="#acf2c8"></stop><stop offset=".5538" stop-color="#b4f5c8"></stop><stop offset=".7956" stop-color="#b9f8c4"></stop><stop offset="1" stop-color="#c0f8c1"></stop></linearGradient><g xmlns="http://www.w3.org/2000/svg"><path d="m488.662 62.513-39.119-39.098c-31.047-31.034-81.567-31.033-112.616 0l-292.253 292.102c-6.231 6.228-10.746 14.014-13.055 22.519l-29.863 110.011c-4.735 17.447.267 36.224 13.054 49.004 9.595 9.591 22.567 14.799 35.821 14.798 4.402 0 8.837-.575 13.187-1.754l110.068-29.848c8.504-2.306 16.292-6.817 22.562-13.085l22.747-22.869c7.602-7.642 7.779-19.934.402-27.792-7.378-7.859-19.656-8.457-27.763-1.354-9.322 8.17-23.505 7.691-32.289-1.089-4.465-4.462-6.923-10.394-6.923-16.703s2.458-12.241 6.923-16.703l212.05-211.941 33.437 33.42-143.342 143.27c-7.812 7.809-7.815 20.472-.007 28.285 7.808 7.812 20.471 7.816 28.284.007l198.695-198.593c15.043-15.036 23.328-35.028 23.328-56.293s-8.285-41.258-23.328-56.294zm-435.313 408.976c-3.652.995-7.587-.056-10.263-2.729-2.671-2.67-3.716-6.591-2.727-10.234l23.059-84.946c1.85 2.481 3.893 4.845 6.122 7.072 11.927 11.921 27.449 18.112 43.11 18.573.467 16.296 7.037 31.548 18.618 43.124 2.232 2.232 4.594 4.263 7.063 6.095zm77.92-119.129c-9.223 9.219-24.229 9.218-33.452 0-4.465-4.462-6.923-10.394-6.923-16.702 0-6.287 2.441-12.2 6.877-16.656l212.096-211.988 33.437 33.42zm329.115-205.551-27.059 27.045-95.166-95.117 27.044-27.03c15.456-15.449 40.605-15.45 56.062 0l39.119 39.098c7.484 7.48 11.605 17.425 11.605 28.002s-4.12 20.522-11.605 28.002z" fill="url(#SVGID_1_)" data-original="url(#SVGID_1_)"></path></g></g></svg>