<svg xmlns="http://www.w3.org/2000/svg" version="1.1" xmlns:xlink="http://www.w3.org/1999/xlink" xmlns:svgjs="http://svgjs.com/svgjs" width="512" height="512" x="0" y="0" viewBox="0 0 511.976 511.976" style="enable-background:new 0 0 512 512" xml:space="preserve" class=""><g><linearGradient xmlns="http://www.w3.org/2000/svg" id="SVGID_1_" gradientUnits="userSpaceOnUse" x1="0" x2="511.976" y1="255.988" y2="255.988"><stop offset="0" stop-color="#9cecd3"></stop><stop offset=".0208" stop-color="#a4edcd"></stop><stop offset=".2931" stop-color="#acf2c8"></stop><stop offset=".5538" stop-color="#b4f5c8"></stop><stop offset=".7956" stop-color="#b9f8c4"></stop><stop offset="1" stop-color="#c0f8c1"></stop></linearGradient><path xmlns="http://www.w3.org/2000/svg" d="m499.616 156.038-55.154-84.512c-14.016-21.476-37.645-34.297-63.207-34.297h-250.534c-25.563 0-49.192 12.821-63.207 34.297l-55.153 84.512c-18.812 28.825-15.91 66.841 7.057 92.447l180.42 201.159c14.308 15.953 34.773 25.103 56.149 25.103 21.374 0 41.842-9.15 56.149-25.103l21.513-23.985c7.375-8.223 6.688-20.867-1.535-28.242-7.864-7.053-19.774-6.733-27.248.503l87.014-177.23h71.838c-.304.367-.616.73-.937 1.088l-92.138 102.729c-7.375 8.223-6.688 20.867 1.535 28.242 8.223 7.376 20.868 6.687 28.242-1.535l92.138-102.729c22.967-25.606 25.869-63.622 7.058-92.447zm-88.652-62.65 55.154 84.512c.595.912 1.144 1.843 1.648 2.791h-77.124l-68.638-103.462h59.251c12 0 23.106 6.04 29.709 16.159zm-136.962-16.159 68.638 103.461h-173.304l68.638-103.461zm-172.99 16.159c6.603-10.118 17.709-16.158 29.709-16.158h59.251l-68.638 103.46h-77.123c.504-.948 1.053-1.879 1.648-2.791zm-51.817 128.39c-.321-.358-.633-.72-.937-1.088h71.837l86.931 177.061zm206.793 184.936-91.331-186.024h182.662z" fill="url(#SVGID_1_)" data-original="url(#SVGID_1_)"></path></g></svg>