<svg xmlns="http://www.w3.org/2000/svg" version="1.1" xmlns:xlink="http://www.w3.org/1999/xlink" xmlns:svgjs="http://svgjs.com/svgjs" width="512" height="512" x="0" y="0" viewBox="0 0 512 512.00118" style="enable-background:new 0 0 512 512" xml:space="preserve" class=""><g><linearGradient xmlns="http://www.w3.org/2000/svg" id="a" gradientUnits="userSpaceOnUse" x1="-.000010024" x2="511.995269972" y1="255.999215974" y2="255.999215974"><stop offset="0" stop-color="#9cecd3"></stop><stop offset=".0208" stop-color="#a4edcd"></stop><stop offset=".2931" stop-color="#acf2c8"></stop><stop offset=".5538" stop-color="#b4f5c8"></stop><stop offset=".7956" stop-color="#b9f8c4"></stop><stop offset="1" stop-color="#c0f8c1"></stop></linearGradient><path xmlns="http://www.w3.org/2000/svg" d="m510.148438 105.601562c-3.273438-7.074218-10.359376-11.601562-18.152344-11.601562h-61.242188l52.40625-60.964844c7.203125-8.375 6.25-21-2.128906-28.203125-8.375-7.199219-21-6.246093-28.203125 2.128907l-74.820313 87.039062h-175.601562c-8.523438-47.691406-50.304688-84-100.40625-84-56.242188 0-102 45.753906-102 102 0 56.242188 45.757812 101.996094 102 101.996094 16.554688 0 32.636719-3.957032 47.121094-11.519532l83.769531 98.300782c11.359375 13.328125 26.460937 22.566406 43.105469 26.695312v132.601563c-32.632813 3.242187-57.871094 12.753906-59.140625 13.242187-10.304688 3.9375-15.457031 15.472656-11.535157 25.78125 3.921876 10.3125 15.472657 15.496094 25.789063 11.589844.308594-.117188 31.304687-11.691406 65.886719-11.691406 34.320312 0 63.226562 11.429687 63.515625 11.546875 2.453125.988281 4.984375 1.457031 7.476562 1.457031 7.898438 0 15.382813-4.707031 18.539063-12.476562 4.15625-10.234376-.769532-21.898438-11.003906-26.058594-1.226563-.5-26.199219-10.496094-59.527344-13.574219v-132.417969c16.464844-4.085937 31.417968-13.164062 42.734375-26.257812l12.765625-13.445313c7.609375-8.007812 7.28125-20.664062-.726563-28.273437-8.007812-7.605469-20.667969-7.28125-28.273437.730468l-13.113282 13.804688c-.25.261719-.488281.527344-.722656.800781-8.164062 9.582031-20.070312 15.082031-32.664062 15.082031-12.589844 0-24.496094-5.5-32.660156-15.082031l-51.84375-60.835937h204.503906c1.375 0 2.714844-.140625 4.015625-.402344 6.902343 1.398438 14.335937-.894531 19.222656-6.644531l68-80c5.046875-5.9375 6.183594-14.269531 2.914063-21.347657zm-408.148438 68.394532c-34.1875 0-62-27.8125-62-61.996094 0-34.1875 27.8125-62 62-62 27.925781 0 51.59375 18.5625 59.324219 44h-61.324219c-7.800781 0-14.890625 4.535156-18.160156 11.613281-3.269532 7.082031-2.121094 15.417969 2.9375 21.355469l37.253906 43.71875c-6.394531 2.179688-13.140625 3.308594-20.03125 3.308594zm41.320312-40h200.304688l-34.386719 40h-131.832031zm271.425782 40h-52.761719l34.386719-40h52.375zm0 0" fill="url(#a)" data-original="url(#a)" class=""></path></g></svg>