<svg xmlns="http://www.w3.org/2000/svg" version="1.1" xmlns:xlink="http://www.w3.org/1999/xlink" xmlns:svgjs="http://svgjs.com/svgjs" width="512" height="512" x="0" y="0" viewBox="0 0 512 512" style="enable-background:new 0 0 512 512" xml:space="preserve" class=""><g><linearGradient xmlns="http://www.w3.org/2000/svg" id="SVGID_1_" gradientUnits="userSpaceOnUse" x1="19.449" x2="492.551" y1="256" y2="256"><stop offset="0" stop-color="#9cecd3"></stop><stop offset=".0208" stop-color="#a4edcd"></stop><stop offset=".2931" stop-color="#acf2c8"></stop><stop offset=".5538" stop-color="#b4f5c8"></stop><stop offset=".7956" stop-color="#b9f8c4"></stop><stop offset="1" stop-color="#c0f8c1"></stop></linearGradient><g xmlns="http://www.w3.org/2000/svg"><path d="m297.101 84h-173.652c-11.046 0-20 8.954-20 20v86.703c0 11.046 8.954 20 20 20h173.651c11.046 0 20-8.954 20-20v-86.703c.001-11.046-8.954-20-19.999-20zm-20 86.703h-133.652v-46.703h133.651v46.703zm40 97.318c0 11.046-8.954 20-20 20h-173.652c-11.046 0-20-8.954-20-20s8.954-20 20-20h173.651c11.046 0 20.001 8.955 20.001 20zm0 72c0 11.046-8.954 20-20 20h-173.652c-11.046 0-20-8.954-20-20s8.954-20 20-20h173.651c11.046 0 20.001 8.955 20.001 20zm0 72c0 11.046-8.954 20-20 20h-173.652c-11.046 0-20-8.954-20-20s8.954-20 20-20h173.651c11.046 0 20.001 8.955 20.001 20zm155.45-45.873c11.046 0 20-8.954 20-20v-140.044c0-44.112-35.888-80-80-80h-11.45v-46.104c0-44.112-35.888-80-80-80h-221.652c-44.112 0-80 35.888-80 80v348.408c0 46.093 37.658 83.592 83.945 83.592h323.558c36.171 0 65.599-29.428 65.599-65.599v-.253c0-11.046-8.954-20-20-20s-20 8.954-20 20v.253c0 14.115-11.483 25.599-25.599 25.599h-.126c-7.077 0-13.495-2.844-18.151-7.438-.018-.018-.036-.036-.054-.054-.011-.011-.022-.023-.034-.034-4.624-4.634-7.486-11.025-7.486-18.073v-280.297h11.45c22.056 0 40 17.944 40 40v140.045c0 11.045 8.954 19.999 20 19.999zm-369.157 105.852c-24.231 0-43.945-19.556-43.945-43.592v-348.408c0-22.056 17.944-40 40-40h221.651c22.056 0 40 17.944 40 40v366.401.084.042c0 9.03 1.845 17.64 5.179 25.473z" fill="url(#SVGID_1_)" data-original="url(#SVGID_1_)"></path></g></g></svg>