<svg xmlns="http://www.w3.org/2000/svg" version="1.1" xmlns:xlink="http://www.w3.org/1999/xlink" xmlns:svgjs="http://svgjs.com/svgjs" width="512" height="512" x="0" y="0" viewBox="0 0 512 512" style="enable-background:new 0 0 512 512" xml:space="preserve" class=""><g><linearGradient xmlns="http://www.w3.org/2000/svg" id="SVGID_1_" gradientUnits="userSpaceOnUse" x1="3.765" x2="508.235" y1="256" y2="256"><stop offset="0" stop-color="#9cecd3"></stop><stop offset=".0208" stop-color="#a4edcd"></stop><stop offset=".2931" stop-color="#acf2c8"></stop><stop offset=".5538" stop-color="#b4f5c8"></stop><stop offset=".7956" stop-color="#b9f8c4"></stop><stop offset="1" stop-color="#c0f8c1"></stop></linearGradient><path xmlns="http://www.w3.org/2000/svg" d="m496.593 90.497-29.555-29.554c-15.48-15.483-40.655-15.502-56.12-.042l-45.333 45.333-100.378-100.377c-.001-.001-.002-.002-.004-.004-3.715-3.74-8.77-5.853-14.042-5.853h-.117-167.279c-44.183 0-80 35.817-80 80v352c0 44.183 35.817 80 80 80h222.122c44 0 79.669-35.669 79.669-79.669 0-10.845-8.433-20.081-19.271-20.466-11.378-.404-20.729 8.699-20.729 19.987v.148c0 22.091-17.909 40-40 40h-221.791c-22.091 0-40-17.909-40-40v-352c0-22.091 17.909-40 40-40h147.3v34.491c0 44.183 35.817 80 80 80h6.264l-121.657 121.656c-2.157 2.158-3.718 4.686-4.684 7.379l-35.528 92.716c-2.825 7.372-1.049 15.716 4.534 21.299 3.82 3.82 8.935 5.858 14.146 5.858 2.402 0 4.826-.434 7.152-1.325l92.707-35.526c2.697-.965 5.228-2.527 7.388-4.687l64.169-64.169v33.679c0 10.845 8.433 20.081 19.271 20.466 11.378.404 20.729-8.699 20.729-19.987v-74.158l71.958-71.958 39.118-39.119c7.498-7.497 11.619-17.47 11.604-28.08-.016-10.587-4.151-20.545-11.643-28.038zm-229.348 228.938-29.145-29.146 147.842-147.842 29.146 29.146zm3.819-244.944v-6.207l46.206 46.207h-6.206c-22.055 0-40-17.944-40-40zm-53.601 251.732 13.848 13.848-22.45 8.603zm225.909-182.915-29.146-29.146 24.731-24.731 29.146 29.145z" fill="url(#SVGID_1_)" data-original="url(#SVGID_1_)"></path></g></svg>